# xmcd
#
# Track frame offsets:
#	150
#	14625
#	22237
#	35350
#	81687
#	91475
#	108937
#	134812
#	148837
#	160337
#	213975
#	232912
#	248587
#	266750
#	284612
#	309125
#	319687
#
# Disc length: 4454
#
# Revision: 2
# Processed by: cddbd v1.5.1PL0 Copyright (c) Steve Scherf et al.
# Submitted via: CDex 1.51
# Normalized: r0:TDELIM( - ),TSWAP
#
DISCID=fa116411
DTITLE=Various Artist - Gardening Australia - Blooms
DYEAR=1995
DGENRE=New Age
TTITLE0=Paradise - Love Theme from WIld Orchid
TTITLE1=West Australia Symphony Orchestra - Arrival of the Queen of Sheba (from Solomon)
TTITLE2=Tommy Emmanuel - Countrywide
TTITLE3=The Art of Noise - Moments in Love
TTITLE4=London Symphony Orchestra - Dance of the Mirlitons (from Nutcracker Suite)
TTITLE5=Martin Johannes Wenberg - Starting Out
TTITLE6=Vangelis - Alpha
TTITLE7=Tommy Emmanuel - Daybreak
TTITLE8=London Symphony Orchestra - March (from Nutcracker Suite)
TTITLE9=Enigma - Principles of Lust
TTITLE10=Andreas Vollenweider - Moon Dance
TTITLE11=The Brandenburg Orchestra - Dance of the Furies (from Orphee et Eurydice)
TTITLE12=Sirocco - Mountain
TTITLE13=Andreas Vollenweider - Dancing with the Lion
TTITLE14=Tommy Emmanuel - Up from Down Under
TTITLE15=London Symphony Orchestra - Dance of the Sugar Plum Fairy (from Nutcracker Suite)
TTITLE16=Clannad - A Gentle Place
EXTD=YEAR: 1995
EXTT0=
EXTT1=
EXTT2=
EXTT3=
EXTT4=
EXTT5=
EXTT6=
EXTT7=
EXTT8=
EXTT9=
EXTT10=
EXTT11=
EXTT12=
EXTT13=
EXTT14=
EXTT15=
EXTT16=
PLAYORDER=
